<svg xmlns="http://www.w3.org/2000/svg" class="svg-icon infrastructure" viewBox="0 0 56.49 53.97">
	<g data-name="Слой 2"><g data-name="Слой 1">
		<path class="cls-1-infrastructure" d="M55.25,51.5H54.8V4.33A4.33,4.33,0,0,0,50.47,0H31.91a4.33,4.33,0,0,0-4.33,4.33v6.41H16.08A3.76,3.76,0,0,0,14.63,18V20.3H5.88a4.33,4.33,0,0,0-4.33,4.33V51.5H1.24a1.24,1.24,0,1,0,0,2.47h54a1.24,1.24,0,1,0,0-2.47Zm-40.61,0H4V24.63a1.85,1.85,0,0,1,1.86-1.85h8.76Zm24.43,0h-22V18.25h22Zm1-35.71h-24a1.29,1.29,0,1,1,0-2.57h24a1.29,1.29,0,1,1,0,2.57ZM52.32,51.51H41.55V45.79H52.32Zm0-8.2H41.55V39.61H52.32Zm0-6.18H41.55V33.75H52.32Zm0-5.86H41.55V27.89H52.32Zm0-5.88H41.55V22H52.32ZM41.55,19.54V18a3.77,3.77,0,0,0,1.93-1.81h8.83v3.39Zm10.79-5.85H43.78a3.77,3.77,0,0,0-3.67-2.94h-10V10.3H52.34Zm0-5.86H30.07V4.33a1.85,1.85,0,0,1,1.86-1.85H50.48a1.85,1.85,0,0,1,1.86,1.85ZM31.87,36.16h1.79a1.24,1.24,0,1,0,0-2.47H31.87a1.24,1.24,0,1,0,0,2.47Zm0,6h1.79a1.24,1.24,0,1,0,0-2.47H31.87a1.24,1.24,0,1,0,0,2.47Zm0,6h1.79a1.24,1.24,0,1,0,0-2.47H31.87a1.24,1.24,0,1,0,0,2.47Zm-9.67-12H24a1.24,1.24,0,1,0,0-2.47H22.2a1.24,1.24,0,1,0,0,2.47Zm0,5.86H24a1.24,1.24,0,1,0,0-2.47H22.2a1.24,1.24,0,1,0,0,2.47Zm0,5.86H24a1.24,1.24,0,1,0,0-2.47H22.2a1.24,1.24,0,1,0,0,2.47Zm9.67-17.57h1.79a1.24,1.24,0,1,0,0-2.47H31.87a1.24,1.24,0,1,0,0,2.47Zm-9.67,0H24a1.24,1.24,0,1,0,0-2.47H22.2a1.24,1.24,0,1,0,0,2.47Zm9.67-5.86h1.79a1.24,1.24,0,1,0,0-2.47H31.87a1.24,1.24,0,1,0,0,2.47Zm-9.67,0H24A1.24,1.24,0,1,0,24,22H22.2a1.24,1.24,0,1,0,0,2.47Zm-13,15a1.24,1.24,0,0,0,1.24-1.24V35.86a1.24,1.24,0,0,0-2.47,0v2.38A1.24,1.24,0,0,0,9.19,39.47Zm0-8.78a1.24,1.24,0,0,0,1.24-1.24V27.07a1.24,1.24,0,0,0-2.47,0v2.39A1.24,1.24,0,0,0,9.19,30.69Zm0,17.57A1.24,1.24,0,0,0,10.42,47V44.65a1.24,1.24,0,0,0-2.47,0V47A1.24,1.24,0,0,0,9.19,48.26Z"/></g></g></svg>