<svg xmlns="http://www.w3.org/2000/svg" class="svg-icon loyalty" viewBox="0 0 82.98 82.99">
	<g data-name="Слой 2"><g data-name="Слой 1">
		<path class="cls-1-loyalty" d="M57.29,0a27.63,27.63,0,0,1,6.55.78,23.87,23.87,0,0,1,15,11.29c6.43,11,5.6,27.31-4.27,42.63a5.38,5.38,0,0,1-1.4,4.77l-2.64,2.65a6.62,6.62,0,0,1-3,1.47,5.29,5.29,0,0,1-1.47,3l-2.64,2.61a5.75,5.75,0,0,1-4,1.47,5.19,5.19,0,0,1-1.27,2.15L55.47,75.5A5.14,5.14,0,0,1,51.3,77,5.28,5.28,0,0,1,50,79L47.42,81.6a5.64,5.64,0,0,1-7.43,0l-4.72-4.86a5.25,5.25,0,0,1-6.81-.39c-1-1-2-2-2.93-2.87A5.16,5.16,0,0,1,24,70.11a5.43,5.43,0,0,1-2.25-1c-1.36-1.2-2.75-2.63-3.88-3.79a5.82,5.82,0,0,1-1.66-2.87,5.26,5.26,0,0,1-3.13-1.5l-2.7-2.71a5.49,5.49,0,0,1-1.37-5.12A7.48,7.48,0,0,1,7.43,52c-1-.93-1.94-1.91-2.77-2.71a5.3,5.3,0,0,1-1.43-4.64c-5.37-13.81-3.87-27.38,3.29-36C11,3.25,17.81,0,26.06.06A40.3,40.3,0,0,1,41.46,3.59,36.87,36.87,0,0,1,57.29,0ZM26.09,4.15A20.13,20.13,0,0,0,9.71,11.36C4.22,17.94,2.46,28.63,6.09,40.21L32,12.83a2.17,2.17,0,0,1,3.06.07l9.8,10.84H55.08c-4.89-5.36-9.86-10.78-14.79-16.16a37.08,37.08,0,0,0-14.2-3.43Zm31.17,0A34.48,34.48,0,0,0,45,6.63l12.87,14a10.22,10.22,0,0,1,1.5,2,3.7,3.7,0,0,1,.52,2.61A3.34,3.34,0,0,1,58,27.48a6.41,6.41,0,0,1-2.44.43H43.94a2.11,2.11,0,0,1-1.56-.69l-8.89-9.86L7.78,44.49c-.58.61-.76,1.27-.16,1.86L10.33,49c.8.73,1.24.33,1.82-.23L29.93,30.68a2.1,2.1,0,0,1,1.47-.62,2.09,2.09,0,0,1,1.5,3.56C26.52,40.33,19.7,46.83,13.39,53.53c-.63.75-.49,1.25,0,1.73L16.09,58a1.11,1.11,0,0,0,1.56,0L36.71,38.13a2.1,2.1,0,0,1,1.47-.68A2.09,2.09,0,0,1,39.7,41c-6.44,6.67-12.84,13.47-19.28,20.11-.38.4.05.89.39,1.21,1.14,1.06,2.27,2.22,3.39,3.33a1.12,1.12,0,0,0,1.6.16,71.12,71.12,0,0,1,5.54-6,5.12,5.12,0,0,1,3-1.44,5.39,5.39,0,0,1,1.47-3c.88-.93,1.85-1.9,2.67-2.68a5.18,5.18,0,0,1,3-1.44,5.25,5.25,0,0,1,1.47-3c.88-.87,1.8-1.76,2.64-2.65a5.32,5.32,0,0,1,3-1.43,5.07,5.07,0,0,1,1.47-3l2.64-2.65a5.18,5.18,0,0,1,7.43.07L72.08,50.86c8.21-13.76,8.38-27.77,3.16-36.66A19.45,19.45,0,0,0,62.83,4.86,30.93,30.93,0,0,0,57.26,4.18ZM56.41,41.1a1.08,1.08,0,0,0-.75.33L53,44.07c-.67.68-.29,1.25.26,1.86,4.48,4.6,9,9.33,12.83,13.25a1,1,0,0,0,1.5,0l2.57-2.58a1.14,1.14,0,0,0,0-1.6L57.16,41.42a1.11,1.11,0,0,0-.75-.33Zm-7.13,7.11a1,1,0,0,0-.75.33l-2.61,2.61c-.66.71-.31,1.28.23,1.86,4.33,4.35,8.51,8.92,12.83,13.25a1,1,0,0,0,1.5,0l2.61-2.61a1.14,1.14,0,0,0,0-1.57L50,48.54a1.11,1.11,0,0,0-.75-.33Zm-7.1,7.12a1.12,1.12,0,0,0-.78.33l-2.57,2.58c-.7.74-.45,1.26.23,2,4,4.12,8,8.22,12,12.34a1,1,0,0,0,1.5,0l2.61-2.61a1.18,1.18,0,0,0,0-1.6L43.06,55.78a1.31,1.31,0,0,0-.88-.46ZM35,62.41a1.07,1.07,0,0,0-.75.36c-.91.9-1.86,1.83-2.74,2.74a1.18,1.18,0,0,0,.1,1.47L43,78.67a.94.94,0,0,0,1.43,0l2.67-2.64a1.14,1.14,0,0,0,0-1.57L36.05,63a1.74,1.74,0,0,0-1-.62Zm-6.81,7a1,1,0,0,0,.23,1c.92,1,1.93,1.95,2.9,2.91a1,1,0,0,0,.88.23c-1.36-1.47-2.84-2.87-4-4.18Z"/></g></g></svg>