<svg xmlns="http://www.w3.org/2000/svg" class="svg-icon atm" viewBox="0 0 100 69">
	<g data-name="Слой 2"><g data-name="Слой 1">
		<path class="cls-1-atm" d="M32.08,20.35A10.18,10.18,0,1,0,21.92,10.17,10.18,10.18,0,0,0,32.08,20.35Zm0-15.49a5.31,5.31,0,1,1-5.3,5.31A5.31,5.31,0,0,1,32.08,4.86ZM65.41,20.35A10.18,10.18,0,1,0,55.25,10.17,10.18,10.18,0,0,0,65.41,20.35Zm0-15.49a5.31,5.31,0,1,1-5.3,5.31A5.31,5.31,0,0,1,65.41,4.86ZM47.14,42.61,50.85,34c1.76-4.08,4.93-9.51,12.1-9.51h4.92C75,24.5,78.2,29.93,80,34l3.71,8.6a2.43,2.43,0,1,1-4.46,1.93l-3.71-8.6c-2-4.67-4.23-6.58-7.64-6.58H62.95c-3.41,0-5.62,1.91-7.64,6.58l-3.71,8.6a2.43,2.43,0,1,1-4.46-1.93ZM99.94,50.9a5.6,5.6,0,0,1-2.48,3.72C94.1,57,87.32,58,79.07,58a179.65,179.65,0,0,1-30.84-3.15c-12.79-2.35-24.66-5.69-33.43-9.4C4.64,41.15,0,37,.67,32.79c.69-4.5,6.88-5.73,8.91-6.13a2.43,2.43,0,0,1,.94,4.77c-4.52.89-5.05,2.09-5.05,2.1C5.39,34,7,36.64,15.29,40.35L18,34c1.76-4.08,4.93-9.51,12.1-9.51H35a11.28,11.28,0,0,1,9,4.29,2.43,2.43,0,1,1-3.74,3.1A6.47,6.47,0,0,0,35,29.36H30.12c-3.41,0-5.62,1.91-7.64,6.58l-2.7,6.27a172.29,172.29,0,0,0,29.33,7.86c23.94,4.4,41.33,3.59,45.53.6.39-.28.49-.47.5-.5s-.06-1.3-3.89-3.73a2.43,2.43,0,0,1,2.6-4.11C98.39,45.21,100.38,48,99.94,50.9Zm-3.2,10.34a2.43,2.43,0,0,1,.11,3.44C94,67.75,86.59,69,77.33,69a178.76,178.76,0,0,1-30.79-3.16C24,61.7,5.55,54.77.54,48.58a2.43,2.43,0,1,1,3.77-3.06C7.92,50,23.88,56.73,47.42,61.05c26.86,4.94,43.26,3.09,45.89.29A2.42,2.42,0,0,1,96.74,61.24Z"/></g></g></svg>