<svg xmlns="http://www.w3.org/2000/svg" class="svg-icon economy" viewBox="0 0 70 80">
	<g data-name="Слой 2"><g data-name="Слой 1">
		<path class="cls-1-economy" d="M35,23.44a2.35,2.35,0,0,1-.91-4.5c1-.45,2.3-.07,3.43,1a2.33,2.33,0,0,0,3.3-.05,2.35,2.35,0,0,0-.05-3.31,9.16,9.16,0,0,0-3.44-2.16V11.72a2.33,2.33,0,1,0-4.67,0v2.75l-.4.15A7,7,0,0,0,35,28.12a2.35,2.35,0,0,1,.8,4.55c-1.2.44-2.59-.16-3.83-1.63a2.33,2.33,0,0,0-3.29-.29,2.35,2.35,0,0,0-.29,3.3,9.7,9.7,0,0,0,4.27,3.06v2.73a2.33,2.33,0,1,0,4.67,0V37.1l.06,0A7,7,0,0,0,35,23.44ZM67.67,51.87H58.33a25.62,25.62,0,0,0-21,11V51.45a25.67,25.67,0,1,0-4.67,0v11.4a25.62,25.62,0,0,0-21-11H2.33A2.34,2.34,0,0,0,0,54.22,25.75,25.75,0,0,0,25.67,80H44.33A25.75,25.75,0,0,0,70,54.22,2.34,2.34,0,0,0,67.67,51.87Zm-42,23.44A21.07,21.07,0,0,1,4.8,56.56h6.87A21.07,21.07,0,0,1,32.54,75.31ZM14,25.78A21,21,0,1,1,35,46.87,21.07,21.07,0,0,1,14,25.78ZM44.33,75.31H37.46A21.07,21.07,0,0,1,58.33,56.56H65.2A21.07,21.07,0,0,1,44.33,75.31Z"/></g></g></svg>