<svg xmlns="http://www.w3.org/2000/svg" class="svg-icon partner" viewBox="0 0 117 86">
	<g data-name="Слой 2">
		<g data-name="Слой 1">
			<path class="cls-1-partner" d="M103.22,38.71c-4-2-11.45-2-11.76-2a1.72,1.72,0,0,0,0,3.43c1.93,0,7.52.3,10.23,1.65a1.7,1.7,0,0,0,.77.18,1.72,1.72,0,0,0,.77-3.25Zm8.54,24.43-7.08-2a.72.72,0,0,1-.52-.69V58.07a12.86,12.86,0,0,0,1.64-1.35,12.63,12.63,0,0,0,3.86-9.13V44.32l.68-1.37a11,11,0,0,0,1.15-4.87V29.24a1.72,1.72,0,0,0-1.71-1.72H93.3A10.9,10.9,0,0,0,82.42,38.41v.1a9.11,9.11,0,0,0,1,4l.88,1.76v2.8A13.39,13.39,0,0,0,89.75,58v2.48c0,.38,0,.54-1.42.95l-3.45,1-10-3.64a1.71,1.71,0,0,0-.47-1.31l-3.19-3.36V48.42c.34-.28.67-.57,1-.87a20.15,20.15,0,0,0,6.34-14.64v-4.5a19.86,19.86,0,0,0,1.83-8.34V1.72A1.71,1.71,0,0,0,78.68,0H53A16.4,16.4,0,0,0,36.65,16.39v3.67a19.86,19.86,0,0,0,1.83,8.34v3.87a21,21,0,0,0,7.33,16v5.77l-3.19,3.36a1.72,1.72,0,0,0-.47,1.31L31.61,62.57a9,9,0,0,0-2.12,1.11l-1.66-.83c4.93-2.15,6.49-5.17,6.57-5.32a1.72,1.72,0,0,0,0-1.53c-1.24-2.47-1.39-7-1.51-10.65,0-1.21-.08-2.36-.15-3.38-.58-8.23-6.83-14.44-14.54-14.44S4.25,33.73,3.67,42c-.07,1-.11,2.17-.15,3.38C3.4,49,3.25,53.52,2,56a1.72,1.72,0,0,0,0,1.53c.07.15,1.63,3.17,6.57,5.32L4,65.15a7.18,7.18,0,0,0-4,6.46V84.28a1.71,1.71,0,1,0,3.43,0V71.61a3.77,3.77,0,0,1,2.09-3.39l5.73-2.87,2,1.9a7.2,7.2,0,0,0,9.94,0l2-1.9,1.87.93a9,9,0,0,0-1.38,4.79V84.28a1.71,1.71,0,1,0,3.43,0V71.08a5.64,5.64,0,0,1,3.7-5.29l11.12-4,4.63,7a3.53,3.53,0,0,0,2.6,1.56l.35,0a3.53,3.53,0,0,0,2.5-1l2.82-2.83V84.28a1.71,1.71,0,1,0,3.43,0V66.41l2.82,2.83a3.53,3.53,0,0,0,2.5,1l.35,0a3.53,3.53,0,0,0,2.6-1.56l4.63-7,11.12,4A5.64,5.64,0,0,1,88,71.08V84.28a1.71,1.71,0,1,0,3.43,0V71.08a9.08,9.08,0,0,0-2.53-6.28l.42-.12a9.35,9.35,0,0,0,1.59-.58l4.38,4.38v15.8a1.71,1.71,0,1,0,3.43,0V68.48L103,64.13a4.08,4.08,0,0,0,.73.29l7.08,2a3.8,3.8,0,0,1,2.74,3.64v14.2a1.71,1.71,0,1,0,3.43,0V70.09A7.25,7.25,0,0,0,111.77,63.14ZM11,60.11a12.32,12.32,0,0,1-5.5-3.54,18.94,18.94,0,0,0,1-4.11A12.79,12.79,0,0,0,11,58.06Zm9.82,4.64a3.78,3.78,0,0,1-5.21,0L14,63.24a3.55,3.55,0,0,0,.42-1.68V59.74a12.71,12.71,0,0,0,7.57,0v1.83a3.56,3.56,0,0,0,.42,1.68Zm-2.61-7.88a9.3,9.3,0,0,1-9.28-9.29,1.71,1.71,0,0,0-1.71-1.72l-.28,0v-.44c0-1.18.07-2.29.14-3.25a12.75,12.75,0,0,1,3.46-8,10.64,10.64,0,0,1,15.31,0,12.75,12.75,0,0,1,3.46,8c.07,1,.1,2.07.14,3.25v.31A15.4,15.4,0,0,0,21,39.57a21.5,21.5,0,0,0-6.52-1,1.71,1.71,0,0,0-1.19.52l-3.09,3.21a1.71,1.71,0,1,0,2.47,2.38L15.26,42c2.22.11,9.34.94,12.12,7.05A9.26,9.26,0,0,1,18.21,56.88Zm7.21,3.24v-2a12.69,12.69,0,0,0,4.53-5.59,18.89,18.89,0,0,0,1,4.1A12.37,12.37,0,0,1,25.42,60.12ZM41.91,32.28V28a1.72,1.72,0,0,0-.17-.75,16.48,16.48,0,0,1-1.66-7.21V16.4A13,13,0,0,1,53,3.43H77V20.06a16.48,16.48,0,0,1-1.66,7.21,1.72,1.72,0,0,0-.17.75v4.89A16.49,16.49,0,0,1,69.88,45a17.24,17.24,0,0,1-1.32,1.12l0,0a16.47,16.47,0,0,1-11.12,3.32C48.72,48.94,41.91,41.37,41.91,32.28Zm9.65,34.53a.12.12,0,0,1-.18,0l-5.33-8L47.76,57l8.09,5.53Zm7-6.62-9.28-6.35v-3.2a19.28,19.28,0,0,0,8,2.3c.45,0,.9,0,1.35,0A19.83,19.83,0,0,0,67.8,50.7v3.13Zm7.14,6.6a.11.11,0,0,1-.09.05.11.11,0,0,1-.1,0l-4.29-4.29L69.28,57,71,58.79ZM97,65.34l-3.89-3.89a4.71,4.71,0,0,0,.11-1v-.72a12,12,0,0,0,3.39.6H97a12.72,12.72,0,0,0,3.78-.57v.69a4.1,4.1,0,0,0,.12,1Zm6.46-11.09a9.2,9.2,0,0,1-6.75,2.62,9.6,9.6,0,0,1-9-9.75V43.92a1.72,1.72,0,0,0-.18-.77L86.44,41a5.65,5.65,0,0,1-.59-2.51v-.1A7.46,7.46,0,0,1,93.3,31h14.78v7.13a7.51,7.51,0,0,1-.79,3.34l-.87,1.73a1.72,1.72,0,0,0-.18.77v3.67A9.22,9.22,0,0,1,103.42,54.26ZM108,71.56a1.72,1.72,0,0,0-1.71,1.72v11a1.71,1.71,0,1,0,3.43,0v-11A1.72,1.72,0,0,0,108,71.56ZM9,73.83a1.71,1.71,0,0,0-1.71,1.72v8.74a1.71,1.71,0,1,0,3.43,0V75.54A1.71,1.71,0,0,0,9,73.83ZM58.63,19.12c5.34.36,9.22,1.7,11.51,4a1.72,1.72,0,0,0,2.42-2.43c-6.48-6.49-20-5.25-25.57-4.41a3.52,3.52,0,0,0-3,3.51v4a1.71,1.71,0,1,0,3.43,0v-4a.11.11,0,0,1,.09-.12A54.09,54.09,0,0,1,58.63,19.12ZM38.36,75.23a1.72,1.72,0,0,0-1.71,1.72v7.34a1.71,1.71,0,1,0,3.43,0V76.94A1.72,1.72,0,0,0,38.36,75.23Zm40.32,0A1.72,1.72,0,0,0,77,76.94v7.34a1.71,1.71,0,1,0,3.43,0V76.94A1.72,1.72,0,0,0,78.68,75.23Z"/></g></g></svg>