<svg xmlns="http://www.w3.org/2000/svg" class="svg-icon percent" viewBox="0 0 145.75 137.2">
	<g data-name="Слой 2"><g data-name="Слой 1">
		<path class="cls-1-percent" d="M31.86,68.17c19.37.2,32.63-15.06,32.83-33.68C64.89,15.48,52.13.33,33,.13,13.59-.08.32,15,.13,33.81-.07,52.82,12.68,68,31.86,68.17ZM12.36,134.5l22.6.24,98.42-132-22.6-.24Zm100.43,2.58c19.37.2,32.63-15.06,32.83-33.68.2-19-12.56-34.16-31.73-34.36-19.37-.2-32.63,14.86-32.83,33.68C80.86,121.72,93.62,136.87,112.79,137.07ZM32.42,50.88C24.83,50.8,20,43,20.06,34c.1-9.12,4.35-16.68,12.33-16.6,7.6.08,12.45,7.92,12.36,16.86S40.4,51,32.42,50.88Zm80.93,68.9c-7.6-.08-12.45-7.92-12.36-16.86.1-9.12,4.35-16.68,12.33-16.6,7.6.08,12.45,7.92,12.36,16.86S121.33,119.86,113.36,119.78Z"/></g></g></svg>