<svg xmlns="http://www.w3.org/2000/svg" class="svg-icon nalog" viewBox="0 0 95 95">
	<g  data-name="Слой 2"
	><g data-name="Слой 1">
	<path class="cls-1-nalog" d="M59.23,32.64,32.64,59.22l3.13,3.13L62.36,35.77ZM38.64,45.29A6.65,6.65,0,1,0,32,38.64,6.65,6.65,0,0,0,38.64,45.29Zm0-8.86a2.22,2.22,0,1,1-2.22,2.22A2.22,2.22,0,0,1,38.64,36.42ZM56.36,49.71A6.65,6.65,0,1,0,63,56.36,6.65,6.65,0,0,0,56.36,49.71Zm0,8.86a2.21,2.21,0,1,1,2.22-2.22A2.22,2.22,0,0,1,56.36,58.58Z"/>
	<circle class="cls-2-nalog" cx="47.5" cy="47.5" r="45"/></g></g></svg>