<svg xmlns="http://www.w3.org/2000/svg" class="svg-icon phone-form" viewBox="0 0 43.06 43">
<g data-name="Слой 2">
	<g data-name="Слой 1">
		<path class="cls-phone-form-1" d="M36.75,6.3a21.54,21.54,0,0,0-30.44,0A21.5,21.5,0,0,0,21.53,43a20.58,20.58,0,0,0,8.81-1.78A9.24,9.24,0,0,0,35,36.77a5.36,5.36,0,0,0-1.36-6l-.06-.06.09-.09a2.9,2.9,0,0,0,0-4.27l-3.07-3.06a2.93,2.93,0,0,0-2.1-1,3,3,0,0,0-2.13,1L24.8,24.82l-.23-.11c-.19-.1-.37-.19-.52-.29a18.87,18.87,0,0,1-4.5-4.1,11.24,11.24,0,0,1-1.36-2.1c.4-.37.77-.75,1.13-1.12l.47-.47a2.84,2.84,0,0,0,0-4.29l-1.52-1.51-.51-.52c-.34-.35-.68-.7-1.05-1a2.93,2.93,0,0,0-2.08-.9,3,3,0,0,0-2.11.9h0l-1.9,1.9A4.35,4.35,0,0,0,9.29,14,10,10,0,0,0,10,18.23a24.37,24.37,0,0,0,4.31,7.19,26.45,26.45,0,0,0,8.82,6.9,13.87,13.87,0,0,0,5,1.48h.37A4.49,4.49,0,0,0,32,32.33l0,0a.68.68,0,0,1,.1-.11l.05.05a3.25,3.25,0,0,1,.9,3.74c-1,2.42-5,4.9-11.53,4.9a19.38,19.38,0,1,1,18.7-14.22,1.07,1.07,0,0,0,2.06.58A21.47,21.47,0,0,0,36.75,6.3ZM30.4,30.89a2.34,2.34,0,0,1-1.86.78h-.24a11.91,11.91,0,0,1-4.23-1.27A24.35,24.35,0,0,1,16,24a22.32,22.32,0,0,1-4-6.55,7.86,7.86,0,0,1-.61-3.34,2.2,2.2,0,0,1,.68-1.45L14,10.8a1,1,0,0,1,.63-.31.84.84,0,0,1,.59.3l0,0c.34.31.66.64,1,1l.53.54,1.52,1.5a.77.77,0,0,1,0,1.29l-.48.48c-.47.46-.9.92-1.38,1.34,0,0,0,0,0,0A1.44,1.44,0,0,0,16,18.58l0,.07a12.54,12.54,0,0,0,1.84,3h0a20.75,20.75,0,0,0,5,4.55,8,8,0,0,0,.71.39,5.56,5.56,0,0,1,.52.29l.1.05a1.52,1.52,0,0,0,.69.17A1.49,1.49,0,0,0,26,26.63l1.9-1.9a1,1,0,0,1,.62-.33.86.86,0,0,1,.58.32h0l3.07,3.06a.8.8,0,0,1,0,1.3v0c-.2.21-.43.43-.66.65S30.76,30.47,30.4,30.89Z"/>
	</g>
</g>
</svg>