<svg id="Layer_1" data-name="Layer 1" xmlns="http://www.w3.org/2000/svg" viewBox="0 0 154.84 42.33"><defs><style>.cls-1{fill:#fff;}.cls-2{fill:#c1976a;}</style></defs><g id="PROJECTS"><path class="cls-1" d="M85.59,31.81c2.21,0,3.73,1.05,3.67,3.29s-1.6,3.29-3.64,3.29H83.35v3.68H81.13l.06-10.23h4.4Zm-.23,4.78c1,0,1.74-.32,1.74-1.49s-.75-1.48-1.69-1.48h-2v3Z" transform="translate(-1.42)"/><path class="cls-1" d="M99.08,39.59c.06.67.08,2,.46,2.42h-2.3a8.58,8.58,0,0,1-.29-2.1c-.15-1.43-.55-1.89-2-1.89h-2v4H90.72l0-10.23h5c1.9,0,3.41.85,3.41,2.91a2.62,2.62,0,0,1-1.6,2.54C98.76,37.46,99.05,38.6,99.08,39.59Zm-4-3.18c1,0,2-.2,2-1.48s-.91-1.37-1.84-1.37H93v2.85Z" transform="translate(-1.42)"/><path class="cls-1" d="M105.6,31.55c3,0,5,2.18,5,5.36s-2,5.33-5,5.33-5-2.13-5-5.33S102.57,31.55,105.6,31.55Zm-.06,8.85c1.69,0,2.74-1.34,2.74-3.52s-1-3.47-2.74-3.47-2.76,1.37-2.76,3.47S103.8,40.4,105.54,40.4Z" transform="translate(-1.42)"/><path class="cls-1" d="M118.19,31.81l-.06,7.05c0,2.24-1.14,3.47-3.35,3.47s-3.41-1-3.35-3.38v-.67h2v.32c0,1,0,1.95,1.28,1.95,1.08,0,1.17-.82,1.17-1.72l0-6.93h2.22Z" transform="translate(-1.42)"/><path class="cls-1" d="M127.6,31.81l-.06,1.87h-5.36v2.24h4.95v1.75h-4.95l-.06,2.53h5.51v1.87h-7.72L120,31.84h7.63Z" transform="translate(-1.42)"/><path class="cls-1" d="M152.07,31.55c2.13,0,3.87,1,3.87,3.29h-2.12c-.09-1-.76-1.51-1.93-1.51s-1.66.43-1.66,1.19,1.08,1,3.12,1.51c1.78.53,3,1.23,2.91,2.95,0,2.42-2.12,3.32-4.19,3.32-2.74,0-4.37-1.34-4.37-3.67h2.21c.06,1.37.94,1.95,2.28,1.95,1.16,0,1.89-.52,1.89-1.37s-.67-1-2.77-1.57c-1.66-.47-3.2-.91-3.2-3C148.17,32.8,149.71,31.55,152.07,31.55Z" transform="translate(-1.42)"/><path class="cls-1" d="M147.32,31.81V33.7h-3.06L144.2,42h-2.27L142,33.7h-3V31.81Z" transform="translate(-1.42)"/><path class="cls-1" d="M133.83,31.55a4.15,4.15,0,0,1,4.4,3.67h-2.15a2.11,2.11,0,0,0-2.28-1.75c-1.92,0-2.74,1.75-2.74,3.47,0,2.1,1.05,3.46,2.66,3.46,1.31,0,2.12-.81,2.36-2.27h2.21a4.24,4.24,0,0,1-4.57,4.2c-2.92,0-4.9-2.13-4.87-5.36C128.82,33.94,130.72,31.55,133.83,31.55Z" transform="translate(-1.42)"/></g><g id="KSenos"><path class="cls-2" d="M26.52,24.93V22a.28.28,0,0,1,.27-.28l15.77,0a2.93,2.93,0,0,0,3-2.77v-.15A2.51,2.51,0,0,0,43,16.21l-10.93-.09a6.58,6.58,0,0,1-6.65-6.18V9.59h0a6.38,6.38,0,0,1,6.52-6.24H47.63a.27.27,0,0,1,.27.28V6.76a.27.27,0,0,1-.27.28H32.07a2.76,2.76,0,0,0-2.82,2.7h0a2.77,2.77,0,0,0,2.8,2.72l11.15.13a6,6,0,0,1,6.08,5.88V19a6.33,6.33,0,0,1-6.47,6.19h-16A.28.28,0,0,1,26.52,24.93Z" transform="translate(-1.42)"/><rect class="cls-2" y="3.35" width="4.04" height="21.86" rx="0.39"/><path class="cls-2" d="M22.48,25.21H17.94a.27.27,0,0,1-.19-.08l-5.46-5.4L6.72,14.45a.27.27,0,0,1,0-.39L12.16,8.7,17.8,3.42A.32.32,0,0,1,18,3.35h4.49a.28.28,0,0,1,.19.47L12.1,14.06a.28.28,0,0,0,0,.4L22.67,24.74A.27.27,0,0,1,22.48,25.21Z" transform="translate(-1.42)"/><path class="cls-2" d="M149.84,25.56a6.36,6.36,0,0,0,6.43-6.28v-.57a6,6,0,0,0-6-6l-11.08-.14a2.77,2.77,0,0,1-2.78-2.75h0a2.77,2.77,0,0,1,2.8-2.75h15.45a.28.28,0,0,0,.27-.28V3.63a.28.28,0,0,0-.27-.28H139a6.42,6.42,0,0,0-6.48,6.34h0l0,.36a6.6,6.6,0,0,0,6.6,6.28l10.86.09A2.52,2.52,0,0,1,152.55,19v.15a2.94,2.94,0,0,1-3,2.82l-15.66,0a.27.27,0,0,0-.27.28v3a.27.27,0,0,0,.27.28Z" transform="translate(-1.42)"/><path class="cls-2" d="M118.06,6.46a8.13,8.13,0,0,0-8.26,8,8.26,8.26,0,0,0,16.52,0A8.13,8.13,0,0,0,118.06,6.46Zm11.47,8a11.48,11.48,0,0,1-23,0,11.48,11.48,0,0,1,23,0Z" transform="translate(-1.42)"/><path class="cls-2" d="M84.61,25.29V8.85a.26.26,0,0,1,.46-.18l13.84,16.8a.27.27,0,0,0,.2.09h3.33a.27.27,0,0,0,.27-.27V3.63a.27.27,0,0,0-.27-.28H99.5a.27.27,0,0,0-.27.28V20.05a.26.26,0,0,1-.46.17L84.93,3.45a.28.28,0,0,0-.2-.1H81.4a.27.27,0,0,0-.27.28V25.29a.27.27,0,0,0,.27.27h2.94A.27.27,0,0,0,84.61,25.29Z" transform="translate(-1.42)"/><polygon class="cls-2" points="75.52 25.59 66.58 24.77 51.84 25.59 51.84 21.49 66.58 20.67 75.52 21.49 75.52 25.59"/><polygon class="cls-2" points="75.57 16.95 66.63 14.91 51.88 16.95 51.88 12.75 66.63 10.71 75.57 12.75 75.57 16.95"/><polygon class="cls-2" points="75.52 7.62 66.58 4.17 51.84 7.62 51.84 3.45 66.58 0 75.52 3.45 75.52 7.62"/></g></svg>