<?xml version="1.0" encoding="utf-8"?>
<!-- Generator: Adobe Illustrator 25.2.0, SVG Export Plug-In . SVG Version: 6.00 Build 0)  -->
<svg version="1.1" id="Layer_1" xmlns="http://www.w3.org/2000/svg" xmlns:xlink="http://www.w3.org/1999/xlink" x="0px" y="0px"
	 viewBox="0 0 731.34 158.74" style="enable-background:new 0 0 731.34 158.74;" xml:space="preserve">
<style type="text/css">
	.st0{fill-rule:evenodd;clip-rule:evenodd;fill:#C48F2E;}
	.st1{fill-rule:evenodd;clip-rule:evenodd;fill:#FFFFFF;}
	.st2{fill:#FFFFFF;}
	.st3{fill:#C48F2E;}
</style>
<g>
	<g>
		<g>
			<path class="st0" d="M652.72,128.74c-0.32,0-0.58-0.4-0.58-0.89c0-0.49,0.26-0.89,0.58-0.89l54.23,0.01c0.32,0,0.58,0.4,0.58,0.9
				c0,0.49-0.26,0.89-0.58,0.89L652.72,128.74z"/>
			<path class="st0" d="M684.61,132.18c-0.39,0-0.72-0.4-0.72-0.89c0-0.5,0.33-0.9,0.72-0.9l46.02,0.01c0.4,0,0.72,0.4,0.72,0.9
				c0,0.49-0.32,0.89-0.72,0.89L684.61,132.18z"/>
			<path class="st0" d="M648.49,132.19c-0.32,0-0.58-0.4-0.58-0.9c0-0.49,0.26-0.89,0.58-0.89l17.78,0c0.32,0,0.58,0.4,0.58,0.9
				c0,0.5-0.26,0.89-0.58,0.89L648.49,132.19z"/>
		</g>
		<polygon class="st0" points="653.42,118.42 657.85,118.43 721.38,118.44 725.82,118.44 725.82,124.99 653.42,124.97 		"/>
		<path class="st0" d="M719.29,54.17l-59.37-0.02c-0.57,0-1.04-0.46-1.04-1.04l0-10.47c0-0.57,0.47-1.04,1.04-1.04l59.37,0.02
			c0.57,0,1.04,0.46,1.04,1.04l0,10.47C720.33,53.71,719.87,54.17,719.29,54.17z"/>
		<path class="st0" d="M719.28,67.8l-59.34-0.02c-0.58,0-1.05-0.47-1.05-1.05l0-10.62c0-0.58,0.47-1.05,1.05-1.05l59.34,0.02
			c0.58,0,1.05,0.47,1.05,1.05l0,10.62C720.33,67.33,719.86,67.8,719.28,67.8z"/>
		<path class="st0" d="M719.34,80.68l-59.46-0.02c-0.55,0-0.99-0.44-0.99-0.99l0-10c0-0.55,0.44-0.99,0.99-0.99l59.46,0.02
			c0.55,0,0.99,0.44,0.99,0.99l0,10C720.34,80.23,719.89,80.68,719.34,80.68z"/>
		<path class="st0" d="M719.37,93.23l-59.51-0.02c-0.53,0-0.96-0.43-0.96-0.96l0-9.73c0-0.53,0.43-0.97,0.97-0.97l59.51,0.02
			c0.53,0,0.96,0.43,0.96,0.96l0,9.73C720.34,92.8,719.91,93.23,719.37,93.23z"/>
		<path class="st0" d="M719.24,107.42L660,107.4c-0.61,0-1.1-0.49-1.1-1.1l0-11.09c0-0.61,0.49-1.1,1.1-1.1l59.24,0.02
			c0.61,0,1.1,0.49,1.1,1.1l0,11.09C720.34,106.92,719.85,107.42,719.24,107.42z"/>
		<path class="st0" d="M664.06,116.67l0-7.71c0-0.42,0.34-0.76,0.76-0.76l49.59,0.01c0.42,0,0.76,0.34,0.76,0.76l0,7.71
			c0,0.42-0.34,0.76-0.76,0.76l-49.59-0.01C664.4,117.43,664.06,117.09,664.06,116.67z M683.52,113.71c0.33,0,0.67-0.22,0.78-0.5
			c0.29-0.6-0.15-1.29-0.78-1.29l-1.75,0c-0.33,0-0.67,0.23-0.79,0.5c-0.28,0.6,0.16,1.29,0.79,1.29L683.52,113.71z M690.49,113.71
			c0.33,0,0.67-0.22,0.79-0.5c0.29-0.6-0.16-1.29-0.79-1.29l-1.74,0c-0.33,0-0.67,0.23-0.79,0.5c-0.29,0.6,0.16,1.29,0.79,1.29
			L690.49,113.71z M697.46,113.72c0.33,0,0.67-0.22,0.79-0.5c0.29-0.6-0.16-1.29-0.79-1.29l-1.74,0c-0.33,0-0.67,0.23-0.79,0.5
			c-0.29,0.6,0.16,1.29,0.79,1.29L697.46,113.72z M704.44,113.72c0.33,0,0.67-0.22,0.79-0.5c0.28-0.6-0.16-1.29-0.79-1.29l-1.75,0
			c-0.33,0-0.67,0.23-0.78,0.5c-0.29,0.6,0.15,1.29,0.78,1.29L704.44,113.72z M674.8,111.92c-0.33,0-0.67,0.23-0.78,0.5
			c-0.29,0.6,0.15,1.29,0.78,1.29l1.75,0c0.33,0,0.67-0.22,0.78-0.5c0.29-0.6-0.15-1.29-0.78-1.29L674.8,111.92z"/>
		<path class="st0" d="M719.23,40.73l-59.24-0.02c-0.61,0-1.1-0.49-1.1-1.1l0-11.09c0-0.61,0.49-1.1,1.1-1.1l59.24,0.02
			c0.61,0,1.1,0.49,1.1,1.1l0,11.09C720.33,40.24,719.84,40.73,719.23,40.73z"/>
		<g>
			<g>
				<g>
					<rect x="672.69" y="38.98" class="st1" width="4.92" height="59.1"/>
					<rect x="668.12" y="38.98" class="st1" width="2.71" height="59.1"/>
					<rect x="679.48" y="38.98" class="st1" width="2.71" height="59.1"/>
				</g>
				<g>
					<path class="st2" d="M668.01,38.12l14.28,0c0.01-0.01,0.01-0.02,0.02-0.03c0.66-0.84,1.55-1.35,2.52-1.35l0-2.82l-19.38-0.01
						l0,2.82C666.44,36.74,667.34,37.26,668.01,38.12z"/>
				</g>
				<g>
					<path class="st2" d="M668.02,98.93l14.28,0c0.01,0.01,0.01,0.02,0.02,0.03c0.66,0.84,1.55,1.35,2.52,1.35l0,2.82l-19.38-0.01
						l0-2.82C666.45,100.31,667.35,99.79,668.02,98.93z"/>
				</g>
			</g>
			<g>
				<g>
					<rect x="701.61" y="38.99" class="st1" width="4.92" height="59.1"/>
					<rect x="697.04" y="38.99" class="st1" width="2.71" height="59.1"/>
					<rect x="708.4" y="38.99" class="st1" width="2.71" height="59.1"/>
				</g>
				<g>
					<path class="st2" d="M696.93,38.13l14.28,0c0.01-0.01,0.01-0.02,0.02-0.03c0.66-0.84,1.55-1.35,2.52-1.35l0-2.82l-19.38-0.01
						l0,2.82C695.36,36.74,696.26,37.27,696.93,38.13z"/>
				</g>
				<g>
					<path class="st2" d="M696.94,98.94l14.28,0c0.01,0.01,0.01,0.02,0.02,0.03c0.66,0.84,1.55,1.35,2.52,1.35l0,2.82l-19.38-0.01
						l0-2.82C695.37,100.32,696.27,99.79,696.94,98.94z"/>
				</g>
			</g>
		</g>
	</g>
	<g id="KSenos_6_">
		<path class="st3" d="M105.77,131.04v-12.38c0-0.64,0.49-1.15,1.1-1.15l64.07-0.12c6.56-0.01,11.93-5.13,12.11-11.56l0.02-0.59
			c0.16-5.73-4.51-10.47-10.36-10.52l-44.42-0.37c-14.58-0.12-26.48-11.45-27.02-25.72l-0.06-1.49v0
			c0-14.35,11.87-25.98,26.52-25.98h63.82c0.61,0,1.1,0.52,1.1,1.15v13.05c0,0.64-0.49,1.15-1.1,1.15l-63.21-0.02
			c-6.34,0-11.48,5.03-11.48,11.24v0c0,6.19,5.07,11.22,11.39,11.3l45.32,0.54c13.7,0.16,24.72,11.09,24.72,24.51v2.34
			c0,14.23-11.77,25.76-26.3,25.76h-65.11C106.26,132.2,105.77,131.68,105.77,131.04z"/>
		<path class="st3" d="M16.03,41.16H0.39C0.18,41.16,0,41.34,0,41.56v90.25c0,0.22,0.18,0.39,0.39,0.39h15.64
			c0.22,0,0.39-0.18,0.39-0.39V41.56C16.43,41.34,16.25,41.16,16.03,41.16z"/>
		<path class="st3" d="M85.57,132.2H67.1c-0.29,0-0.56-0.12-0.77-0.33l-22.17-22.48L21.53,87.41c-0.46-0.45-0.47-1.2-0.02-1.66
			l22.11-22.31l22.93-21.98c0.2-0.2,0.47-0.3,0.75-0.3h18.26c0.99,0,1.48,1.26,0.76,1.97L43.39,85.77c-0.45,0.45-0.45,1.2,0,1.65
			l42.94,42.81C87.05,130.94,86.56,132.2,85.57,132.2z"/>
		<path class="st3" d="M606.4,131.92c14.5,0,26.26-11.5,26.26-25.68v-2.33c0-13.38-11-24.27-24.68-24.44l-45.26-0.53
			c-6.3-0.08-11.37-5.1-11.37-11.27v0c0-6.19,5.13-11.21,11.47-11.21l63.12,0.02c0.61,0,1.1-0.51,1.1-1.15V42.31
			c0-0.63-0.49-1.15-1.1-1.15h-63.73c-14.62,0-26.48,11.6-26.48,25.9v0l0.06,1.48c0.54,14.23,12.43,25.52,26.98,25.64l44.36,0.37
			c5.84,0.05,10.5,4.78,10.34,10.49l-0.02,0.59c-0.18,6.41-5.54,11.51-12.09,11.53l-63.97,0.12c-0.61,0-1.1,0.52-1.1,1.15v12.34
			c0,0.63,0.49,1.15,1.1,1.15H606.4z"/>
		<path class="st3" d="M474.31,53.87c-18.65,0-33.76,14.63-33.76,32.67s15.12,32.67,33.76,32.67c18.65,0,33.76-14.63,33.76-32.67
			S492.96,53.87,474.31,53.87z M521.2,86.54c0,25.06-20.99,45.37-46.89,45.37c-25.9,0-46.89-20.31-46.89-45.37
			s20.99-45.37,46.89-45.37C500.21,41.16,521.2,61.48,521.2,86.54z"/>
		<g>
			<g>
				<path class="st3" d="M338.93,130.8V63.64c0-1.04,1.25-1.52,1.9-0.73l56.55,68.61c0.21,0.25,0.51,0.39,0.82,0.39h13.61
					c0.6,0,1.08-0.5,1.08-1.12V42.29c0-0.62-0.48-1.12-1.08-1.12h-12.03c-0.6,0-1.08,0.5-1.08,1.12v67.09c0,1.04-1.25,1.52-1.9,0.73
					l-56.55-68.56c-0.21-0.25-0.51-0.39-0.82-0.39h-13.61c-0.6,0-1.08,0.5-1.08,1.12v88.51c0,0.62,0.48,1.12,1.08,1.12h12.03
					C338.44,131.92,338.93,131.42,338.93,130.8z"/>
			</g>
		</g>
		<g>
			<polygon class="st3" points="310.02,132.04 273.32,128.67 212.8,132.04 212.8,115.2 273.32,111.83 310.02,115.2 			"/>
			<polygon class="st3" points="310.2,96.57 273.49,88.19 212.98,96.57 212.98,79.32 273.49,70.94 310.2,79.32 			"/>
			<polygon class="st3" points="310.02,58.28 273.32,44.1 212.8,58.28 212.8,41.17 273.32,26.99 310.02,41.17 			"/>
		</g>
	</g>
</g>
<g>
	<g id="PROJECTS">
		<g>
			<g>
				<path class="st2" d="M600.74,748.86c6.36,0,10.72,3.01,10.55,9.46c0,6.45-4.61,9.46-10.47,9.46h-6.53v10.55h-6.36l0.17-29.39
					h12.64V748.86z M600.07,762.6c2.85,0,5.02-0.92,5.02-4.27c0-3.18-2.18-4.27-4.86-4.27h-5.69v8.54H600.07z"/>
				<path class="st2" d="M639.51,771.22c0.17,1.93,0.25,5.86,1.34,6.95h-6.61c-0.67-1.51-0.67-4.35-0.84-6.03
					c-0.42-4.1-1.59-5.44-5.86-5.44h-5.69v11.47h-6.36l0.17-29.39h14.49c5.44,0,9.8,2.43,9.8,8.37c0,3.43-1.76,6.11-4.61,7.28
					C638.59,765.11,639.42,768.37,639.51,771.22z M628.04,762.09c3.01,0,5.69-0.59,5.69-4.27c0-3.43-2.6-3.94-5.28-3.94h-6.36v8.21
					H628.04z"/>
				<path class="st2" d="M658.26,748.11c8.54,0,14.23,6.28,14.23,15.41c0,9.13-5.86,15.32-14.4,15.32c-8.71,0-14.4-6.11-14.4-15.32
					C643.69,754.31,649.56,748.11,658.26,748.11z M658.1,773.56c4.86,0,7.87-3.85,7.87-10.13c0-6.11-3.01-9.96-7.87-9.96
					c-4.86,0-7.95,3.94-7.95,9.96C650.06,769.71,653.07,773.56,658.1,773.56z"/>
				<path class="st2" d="M694.44,748.86l-0.17,20.26c0,6.45-3.27,9.96-9.63,9.96c-5.94,0-9.8-3.01-9.63-9.71v-1.93h5.86v0.92
					c0,2.76,0,5.61,3.68,5.61c3.1,0,3.35-2.34,3.35-4.94l0.17-19.93h6.36V748.86z"/>
				<path class="st2" d="M721.48,748.86l-0.17,5.36h-15.41v6.45h14.23v5.02h-14.23l-0.17,7.28h15.83v5.36h-22.19l0.17-29.39h21.94
					V748.86z"/>
				<path class="st2" d="M791.82,748.11c6.11,0,11.14,2.85,11.14,9.46h-6.11c-0.25-2.85-2.18-4.35-5.53-4.35
					c-3.01,0-4.77,1.26-4.77,3.43c0,2.6,3.1,2.76,8.96,4.35c5.11,1.51,8.54,3.52,8.37,8.46c0,6.95-6.11,9.55-12.06,9.55
					c-7.87,0-12.56-3.85-12.56-10.55h6.36c0.17,3.94,2.68,5.61,6.53,5.61c3.35,0,5.44-1.51,5.44-3.94c0-2.34-1.93-2.76-7.95-4.52
					c-4.77-1.34-9.21-2.6-9.21-8.62C780.6,751.71,785.03,748.11,791.82,748.11z"/>
				<path class="st2" d="M778.17,748.86v5.44h-8.79l-0.17,23.95h-6.53l0.17-23.95h-8.71v-5.44H778.17z"/>
				<path class="st2" d="M739.4,748.11c7.03,0,12.06,4.52,12.64,10.55h-6.2c-0.67-3.27-3.01-5.02-6.53-5.02
					c-5.53,0-7.87,5.02-7.87,9.96c0,6.03,3.01,9.96,7.62,9.96c3.77,0,6.11-2.34,6.78-6.53h6.36c-0.67,7.28-5.11,12.06-13.15,12.06
					c-8.37,0-14.07-6.11-13.98-15.41C725,754.98,730.44,748.11,739.4,748.11z"/>
			</g>
		</g>
	</g>
	<g id="KSenos_5_">
		<path class="st3" d="M430.97,729.09v-8.54c0-0.44,0.35-0.8,0.78-0.8l45.31-0.08c4.64-0.01,8.44-3.54,8.57-7.98l0.01-0.41
			c0.11-3.95-3.19-7.23-7.33-7.26l-31.42-0.25c-10.31-0.08-18.73-7.9-19.11-17.75l-0.04-1.03l0,0c0-9.9,8.4-17.93,18.76-17.93h45.14
			c0.43,0,0.78,0.36,0.78,0.8v9.01c0,0.44-0.35,0.8-0.78,0.8l-44.71-0.02c-4.48,0-8.12,3.47-8.12,7.76v0c0,4.27,3.59,7.75,8.05,7.8
			l32.06,0.37c9.69,0.11,17.48,7.65,17.48,16.91v1.61c0,9.82-8.33,17.78-18.6,17.78h-46.05
			C431.32,729.89,430.97,729.53,430.97,729.09z"/>
		<path class="st3" d="M370.07,667.06h-10.83c-0.22,0-0.39,0.18-0.39,0.39v62.04c0,0.22,0.18,0.39,0.39,0.39h10.83
			c0.22,0,0.39-0.18,0.39-0.39v-62.04C370.46,667.24,370.28,667.06,370.07,667.06z"/>
		<path class="st3" d="M419.36,729.89H406.3c-0.2,0-0.4-0.08-0.54-0.22l-15.68-15.51l-16-15.17c-0.32-0.31-0.33-0.83-0.01-1.14
			l15.64-15.39l16.22-15.17c0.14-0.13,0.33-0.21,0.53-0.21h12.91c0.7,0,1.05,0.87,0.54,1.36l-30.36,29.42
			c-0.32,0.31-0.32,0.83,0,1.14l30.37,29.54C420.41,729.02,420.06,729.89,419.36,729.89z"/>
		<path class="st3" d="M785.41,730.9c10.2,0,18.47-8.09,18.47-18.07v-1.64c0-9.41-7.74-17.07-17.36-17.19l-31.83-0.38
			c-4.43-0.06-8-3.59-8-7.93l0,0c0-4.36,3.61-7.89,8.06-7.89l44.4,0.02c0.43,0,0.77-0.36,0.77-0.81v-9.15
			c0-0.45-0.35-0.81-0.77-0.81h-44.83c-10.29,0-18.63,8.16-18.63,18.22l0,0l0.04,1.04c0.38,10.01,8.74,17.95,18.98,18.04l31.2,0.26
			c4.11,0.03,7.39,3.36,7.27,7.38l-0.01,0.41c-0.13,4.51-3.9,8.1-8.51,8.11l-45,0.09c-0.43,0-0.77,0.36-0.77,0.81v8.68
			c0,0.45,0.35,0.81,0.77,0.81H785.41z"/>
		<path class="st3" d="M694.06,676c-13.12,0-23.75,10.29-23.75,22.98c0,12.69,10.63,22.98,23.75,22.98s23.75-10.29,23.75-22.98
			C717.81,686.29,707.18,676,694.06,676z M727.05,698.98c0,17.63-14.77,31.92-32.98,31.92c-18.22,0-32.98-14.29-32.98-31.92
			s14.77-31.92,32.98-31.92C712.28,667.06,727.05,681.35,727.05,698.98z"/>
		<g>
			<g>
				<path class="st3" d="M597.92,730.11v-47.24c0-0.73,0.88-1.07,1.34-0.51l39.78,48.26c0.14,0.18,0.36,0.28,0.58,0.28h9.57
					c0.42,0,0.76-0.35,0.76-0.79v-62.26c0-0.44-0.34-0.79-0.76-0.79h-8.46c-0.42,0-0.76,0.35-0.76,0.79v47.19
					c0,0.73-0.88,1.07-1.34,0.51l-39.78-48.22c-0.14-0.18-0.36-0.28-0.58-0.28h-9.57c-0.42,0-0.76,0.35-0.76,0.79v62.26
					c0,0.44,0.34,0.79,0.76,0.79h8.46C597.58,730.9,597.92,730.55,597.92,730.11z"/>
			</g>
		</g>
		<g>
			<polygon class="st3" points="575.9,730.99 550.2,728.63 507.84,730.99 507.84,719.2 550.2,716.84 575.9,719.2 			"/>
			<polygon class="st3" points="576.03,706.15 550.33,700.29 507.96,706.15 507.96,694.08 550.33,688.21 576.03,694.08 			"/>
			<polygon class="st3" points="575.9,679.35 550.2,669.42 507.84,679.35 507.84,667.36 550.2,657.43 575.9,667.36 			"/>
		</g>
	</g>
</g>
</svg>
