<svg xmlns="http://www.w3.org/2000/svg" xmlns:xlink="http://www.w3.org/1999/xlink" viewBox="0 0 355.39 101.46"><defs><style>.cls-1{fill:url(#radial-gradient);}.cls-2{fill:url(#radial-gradient-2);}.cls-3{fill:url(#radial-gradient-3);}.cls-4{fill:url(#radial-gradient-4);}.cls-5{fill:url(#radial-gradient-5);}.cls-6{fill:url(#radial-gradient-6);}.cls-7{fill:url(#radial-gradient-7);}.cls-8{fill:url(#radial-gradient-8);}.cls-10,.cls-9{fill:#be956a;}.cls-10{stroke:#848e91;stroke-miterlimit:10;}.cls-11{fill:url(#radial-gradient-9);}.cls-12{fill:#fff;}.cls-13{fill:#0d5eaf;}.cls-14{fill:#d30202;}</style><radialGradient id="radial-gradient" cx="336.86" cy="26.7" r="9.95" gradientUnits="userSpaceOnUse"><stop offset="0.06" stop-color="#e5ca9b"/><stop offset="0.65" stop-color="#e0c087"/><stop offset="0.7" stop-color="#e0bf86"/><stop offset="1" stop-color="#d09f43"/></radialGradient><radialGradient id="radial-gradient-2" cx="329.55" cy="81.78" r="10.56" xlink:href="#radial-gradient"/><radialGradient id="radial-gradient-3" cx="319.05" cy="51.29" r="37.08" xlink:href="#radial-gradient"/><radialGradient id="radial-gradient-4" cx="343.9" cy="67.08" r="10.06" xlink:href="#radial-gradient"/><radialGradient id="radial-gradient-5" cx="344.29" cy="48.5" r="10.18" xlink:href="#radial-gradient"/><radialGradient id="radial-gradient-6" cx="321.14" cy="9.65" r="10.3" xlink:href="#radial-gradient"/><radialGradient id="radial-gradient-7" cx="306.87" cy="92.02" r="10.4" xlink:href="#radial-gradient"/><radialGradient id="radial-gradient-8" cx="305.53" cy="4.58" r="7.53" xlink:href="#radial-gradient"/><radialGradient id="radial-gradient-9" cx="301.46" cy="47.04" r="2.32" xlink:href="#radial-gradient"/></defs><title>Ресурс 2</title><g id="Слой_2" data-name="Слой 2"><g id="Logo"><g id="Branch"><path class="cls-1" d="M343.46,19.71c.21.81.45,1.63.69,2.43a23.93,23.93,0,0,1,1.06,4.6,8.88,8.88,0,0,1-1.41,5.58,27.41,27.41,0,0,0-.8-4.64c-.62-2.59-1.1-4.61.46-8M330.55,28a24.88,24.88,0,0,1,4.65,1.09c2.09.74,3.85,3.5,5.14,5.52l.25.39a30.78,30.78,0,0,1-3.37-1.32,14.7,14.7,0,0,1-3-2.58c-.46-.47-.93-.94-1.42-1.39A19,19,0,0,0,330.55,28M344,16.35c-5.88,9-.6,10.29-1.47,19.54-.69-.85-1.6-2.5-2.74-4.08a14.74,14.74,0,0,0-4.2-3.68,11.82,11.82,0,0,0-8.32-.75c.29.14.72.35,1.23.64a22.72,22.72,0,0,1,3.36,2.42c2.73,2.24,2.62,2.93,4.66,4.11,1.16.67,6.75,2.49,6.75,2.49s-.22-2.11.67-3.12a9.71,9.71,0,0,0,2.39-7.24C346.18,23.77,344.27,19.7,344,16.35Z"/><path class="cls-2" d="M325.19,77.48a17.55,17.55,0,0,1-.17,4.25c-.35,2-3,4.1-4.95,5.65l-.37.3a22.81,22.81,0,0,1,.71-3.19,13.33,13.33,0,0,1,2.17-3.19c.42-.5.83-1,1.22-1.53a16.74,16.74,0,0,0,1.4-2.28m9.53,9.07a17.11,17.11,0,0,1,2.5.2c-.85.36-1.7.75-2.53,1.13a32.22,32.22,0,0,1-4.84,1.94,13.46,13.46,0,0,1-3.38.44,11.51,11.51,0,0,1-3.09-.41,37.62,37.62,0,0,0,4.95-1.73,15.51,15.51,0,0,1,6.4-1.57m-9-14.3a16.38,16.38,0,0,1-2.9,6.94c-1.19,1.63-2.71,3-3.5,4.93A54,54,0,0,0,318,90.49a9.5,9.5,0,0,1,2.28-.33,3.53,3.53,0,0,1,1.32.21,12.57,12.57,0,0,0,4.81.93,14.79,14.79,0,0,0,3.71-.48c3.17-.82,7.24-3.37,10.88-4.31a24.2,24.2,0,0,0-6.34-1c-5.57,0-7.58,3.08-15.56,4.08,1.57-1.56,6.47-4.59,7-7.71s0-6.41-.49-9.63Z"/><path class="cls-3" d="M292.74,96.49h-.29v-.68h.28A55.48,55.48,0,0,0,329.4,82.5c9.9-8.65,15.39-20.18,15.46-32.48.12-19.11-13.39-36.51-33.62-43.29l.27-.64C332,13,345.75,30.63,345.64,50,345.56,62.5,340,74.2,329.94,83A56.31,56.31,0,0,1,292.74,96.49Z"/><path class="cls-4" d="M335.59,62.3a18.75,18.75,0,0,1,1.93,3.89c.65,1.9-.7,4.84-1.68,7l-.19.41a23,23,0,0,1-.93-3.15,12,12,0,0,1,.39-3.71c.13-.61.25-1.22.34-1.84a15.24,15.24,0,0,0,.14-2.59M351,66.05c-.59.65-1.16,1.32-1.72,2a27.75,27.75,0,0,1-3.41,3.6A11.73,11.73,0,0,1,340,74.15a32.56,32.56,0,0,0,3.61-3.45c1.91-2,3.4-3.63,7.34-4.65m-17.5-8.65a15.65,15.65,0,0,1,.8,7.36c-.27,1.93-.94,3.78-.74,5.78a55,55,0,0,0,2,6.22,6.47,6.47,0,0,1,3.19-1.48,12.83,12.83,0,0,0,7.9-2.86c2.45-2,4.87-5.81,7.68-8.05-11.63,1.55-9.48,6-18.22,11.17.65-2,3.58-6.62,2.55-9.63s-3.12-5.79-5.17-8.49Z"/><path class="cls-5" d="M353.21,42.12c-.21.81-.39,1.64-.58,2.45a24.12,24.12,0,0,1-1.3,4.55,10.09,10.09,0,0,1-4,4.48,28.09,28.09,0,0,0,1.56-4.49c.72-2.57,1.27-4.57,4.33-7M337.5,44.64a22,22,0,0,1,3.65,2.77c1.52,1.47,1.75,4.63,1.92,6.94l0,.45a26.47,26.47,0,0,1-2.39-2.48,12.61,12.61,0,0,1-1.47-3.49c-.19-.6-.37-1.2-.6-1.79a16.23,16.23,0,0,0-1.15-2.39m17.89-5.32c-9.72,5.85-5.59,9-10.93,17-.41-2.06,0-7.33-2.44-9.66s-5.65-4-8.83-5.67a17.35,17.35,0,0,1,4.34,6.33c.7,1.84,1,3.76,2.18,5.49a63.59,63.59,0,0,0,4.86,4.83,5.55,5.55,0,0,1,2.14-2.56,11.14,11.14,0,0,0,5.71-5.61c1.25-2.7,1.53-7.1,3-10.2Z"/><path class="cls-6" d="M323.67,3.25c.59.65,1.2,1.29,1.81,1.93a27.21,27.21,0,0,1,3.22,3.74,8.93,8.93,0,0,1,1.47,5.56,30.9,30.9,0,0,0-3-3.88c-1.83-2.1-3.26-3.73-3.5-7.35m-2.6,11.61c2.22,0,5,1.74,7.1,3l.41.26c-1.1.07-2.25.13-3,.13a6.18,6.18,0,0,1-.65,0,16.8,16.8,0,0,1-4-1.16c-.65-.25-1.3-.49-2-.71a21.66,21.66,0,0,0-2.82-.7,25.15,25.15,0,0,1,4.72-.8h.24M322.55,0c-.88,10.35,4.52,9.5,8.27,18.17-2-1-6.25-4.35-9.75-4.35h-.32a41.31,41.31,0,0,0-10.53,2.56c.55,0,1.1-.06,1.64-.06a21.88,21.88,0,0,1,6.67,1c2.06.66,4,1.65,6.22,1.92a7.49,7.49,0,0,0,.8,0c2.1,0,6.51-.38,6.51-.38s-1.23-1.82-.93-3.07a9.52,9.52,0,0,0-1.4-7.44c-1.61-2.54-5.33-5.48-7.18-8.41Z"/><path class="cls-7" d="M308.36,87.17a19.18,19.18,0,0,1-2.24,3.76c-1.28,1.64-4.72,2.54-7.23,3.19l-.49.13a25.92,25.92,0,0,1,2.21-2.61,15.66,15.66,0,0,1,3.53-2c.62-.29,1.24-.59,1.85-.91a19.67,19.67,0,0,0,2.38-1.52m-7.72,10.45a39.3,39.3,0,0,0,5.31.34c3,0,5.33.08,8.69,2.17h-.07c-.92,0-1.85,0-2.77,0s-1.72,0-2.54,0a19.62,19.62,0,0,1-2.77-.15,11.82,11.82,0,0,1-5.84-2.45m10.74-15a19.06,19.06,0,0,1-6,5.14c-1.87,1-3.93,1.7-5.58,3.1a61,61,0,0,0-4.25,5.26s2.38.28,3.3,1.28a12.45,12.45,0,0,0,7.46,3.67,21.16,21.16,0,0,0,3,.17c1.68,0,3.53-.1,5.31-.1a25.48,25.48,0,0,1,3.64.22c-8.62-7.06-11.22-2.8-21.24-5.62,2.18-.81,8.09-1.65,10.12-4.25s3.18-5.76,4.29-8.86Z"/><path class="cls-8" d="M298.93,2.54c.87.08,1.75.13,2.61.19a32.78,32.78,0,0,1,5.09.56,11.09,11.09,0,0,1,5.3,2.82,38.49,38.49,0,0,0-5-.78c-2.85-.31-5.08-.55-8-2.79M295.51,1C303,8.46,306,4.74,315.12,8.18a4.94,4.94,0,0,1,.43-.56,6.15,6.15,0,0,1-1.84-1.16,11.67,11.67,0,0,0-6.77-4.17c-3.08-.74-7.9-.45-11.43-1.31Z"/></g><g id="OWL"><path class="cls-9" d="M291.21,32c1.32-.82,3.28-.9,3.26-1s-1.42,0-1.43-.09,2.68-.41,2.69-.83S293,29.45,293,29s2.88-1.16,5.78-1.22a16,16,0,0,0,2.72-.07c0-.11-1-.27-1-.37s2,0,2-.13-.77-.15-.77-.29,1.55-.36,1.55-.42-6.31.47-6.4-.06c0-.15.5-.35.46-.46s-2.54.5-2.57.39.77-.34.75-.4-1.82.44-1.86.31.53-.3.5-.38-2.57.65-2.76.25c-.09-.19.41-.57.33-.67s-1.61,1-2.15.66c-.24-.17-.16-.58-.11-1.58s0-1.66,0-2.18A23.76,23.76,0,0,1,293.7,22c.88,0,2.78.22,2.78.22s-.73.13-.72.14.76-.08,1.06-.11c1.57-.17,2.44.27,6.12,1l1.65.37A9.59,9.59,0,0,1,306,24a6.11,6.11,0,0,1-.86,0s2,.22,2,.22c1.51.13,3.83.41,7.28,1h0l-.58.18.71-.16h0a40.75,40.75,0,0,1,6.1.33c-.15.14-.14.16-.14.16a2.56,2.56,0,0,0,.49-.23,39.46,39.46,0,0,1,5-1.81l.07,0s-1.59,4.23-3.42,8.13c-1.52,3.25-2.29,4.87-3.08,5.77-3.06,3.51-7.39,4.78-8.57,4.71a3.89,3.89,0,0,0-1,.09c-.6.13-1.42.46-1.41.82a.4.4,0,0,0,.19.27c.57.43,2.23,4.07.6,7.6A7.8,7.8,0,0,1,302,55.58a10.32,10.32,0,0,1-4.24-1.29,9.35,9.35,0,0,1-.79-.51c.52.54,4.31,4.4,9.4,3.75A10.08,10.08,0,0,0,311.87,55,26.24,26.24,0,0,0,316,49.24c.23-.43.94-1.57.94-1.38l-.16,1.41a9.14,9.14,0,0,1-1,3.2c-1.22,2.48-2.63,2.6-2.81,4.32a15.14,15.14,0,0,1-.21,1.61,4.25,4.25,0,0,1-.51,1.66c-.05,0,0-.32-.14-.64s-.45-.52-.65-.45-.18.39-.23,1a7.06,7.06,0,0,1-.28,1.82c-.06,0,.22-1.23-.37-1.72-.42-.35-1.19-.25-1.29,0s.34.32.47.83a2.39,2.39,0,0,1-.25,1.45,2.87,2.87,0,0,0-.43-1.12c-.43-.44-1.37-.35-1.46-.1s.58.43.88,1.22a1.35,1.35,0,0,1,.07,1,8.88,8.88,0,0,0-.5-1c-.07-.11-.66-.94-1.14-.8s-.54.79-.5,1.29a2.68,2.68,0,0,0,.76,1.42,16.81,16.81,0,0,0,2,1.76,14.93,14.93,0,0,1-3.88-3.09c-1.17-1.37-1.7-2.77-1.88-2.7s.37,1.43.16,1.54-.64-.61-1.57-1.88c-1.72-2.35-1.92-2.48-2-2.45s.83,2.25.69,2.32-.77-1.22-1.63-2.45a12.08,12.08,0,0,0-.9-1.14c-.43-.48-.77-.82-.88-.94a21.24,21.24,0,0,1-2.25-2.75,7.8,7.8,0,0,1-1.57-5.15A6.3,6.3,0,0,1,296,43.14a7.39,7.39,0,0,1,1.6-.8h0l.91-.42-.24.23a3.42,3.42,0,0,0,.82-.18l.59-.29-.33.39a6.77,6.77,0,0,0,1.12-.31c.36-.14.75-.34.75-.34l-.39.4a8.93,8.93,0,0,1,1.87-.2c.83,0,3.26.13,3.58.07l.43-.07h.07l.31-.06a4.87,4.87,0,0,0,1.23-.32c0-.06-.5,0-.5-.09s.74-.08.74-.16-.45-.09-.45-.17.48-.16.47-.2-.68,0-.7-.06.45-.23.43-.28a6.45,6.45,0,0,0-.7.06h-.48c-.35,0-1.08,0-1.08-.14s.12-.08.14-.08c2.52-.81,4.65-2.53,7-3.74,4.22-2.18,7.44-4.68,7.35-4.82s-1.24.54-1.28.47,1.54-.89,1.45-1.1-.91.08-.93,0,1-.38,1-.53-.33-.05-.35-.14,1.33-.6,1.29-.83-.69-.11-.71-.22,2.19-.6,2.16-.85-.7-.09-.74-.3,1.73-.94,1.68-1.12-1,.06-1,0a2.33,2.33,0,0,0,1-.44c.29-.28.22-.48.53-.92a4.57,4.57,0,0,1,.83-.8c-.07-.12-3.07,1.6-3.22,1.37s.48-.56.44-.61-2.63,1.89-2.82,1.68.28-.48.22-.53-2.14,2-2.27,1.9.56-.85.48-.92-2.81,2.75-3.11,2.52.56-1.21.41-1.32-2.11,2-2.17,1.94.74-.89.63-1-2.31,1.57-2.48,1.38.86-1.19.79-1.25-1.54,1.42-1.68,1.31.55-.87.43-1-2.15,1.6-2.24,1.51.27-.33.23-.38-2.51,1.83-2.68,1.65.48-.72.43-.76-1.37,1.35-1.5,1.24.23-.44.16-.49-2.4,2.15-2.51,2,.89-1.17.8-1.25-1,.73-1.38,1.09c-1.89,1.57-3.78,1.49-5.81,2-4.74,1.21-6,4.48-7.24,3.77C287.76,39.78,288.27,33.79,291.21,32Zm8.48,11.26h0a3.94,3.94,0,0,0-3.3.85,2.48,2.48,0,0,0-.91,1.59,3.33,3.33,0,0,0,.22,1.17s-.21-.28-.29-.26a5.81,5.81,0,0,1,.15,1.91,3.69,3.69,0,0,0-.14-.66l-.14-.42,0,.62a4.78,4.78,0,0,0,.44,1.83A7,7,0,0,0,301,54.2a6.31,6.31,0,0,0,4.82-1.92,6.8,6.8,0,0,0,1.8-5.39v-.12c0-.32-.36-2.64-1.85-3.32a5,5,0,0,0-1.34-.21,14.09,14.09,0,0,0-2,0,4.37,4.37,0,0,1,2.28,1.63,4.29,4.29,0,0,1-.17,5.15,4.15,4.15,0,0,1-4,1.31,4.42,4.42,0,0,1-3.35-4.62,4.78,4.78,0,0,1,2.51-3.44Zm6.9,9.87a5.17,5.17,0,0,1-1.76,1.28h0a5.44,5.44,0,0,0,1.75-1.06,9.84,9.84,0,0,0,2-3.13A14,14,0,0,1,306.59,53.1Zm-7.07-7a1,1,0,0,0,.26.48.79.79,0,0,0,.38.2,1,1,0,0,0,.68-.08,1.21,1.21,0,0,0,.67-1,1,1,0,0,0-.15-.6l-.08-.09a1.07,1.07,0,0,0-.21-.16,2.51,2.51,0,0,1,.78,0l.6.09-.14-.07a2.56,2.56,0,0,0-2.89.57,2.23,2.23,0,0,0-.46,1.51,2.13,2.13,0,0,0,.43,1.17s0-.11-.08-.35a2.67,2.67,0,0,1,0-1.34c0-.14.14-.39.18-.38S299.51,46.09,299.52,46.12Zm3.85,2.25a4.59,4.59,0,0,1-.44.48h0a2,2,0,0,1-.3.21l-.18.1a1.24,1.24,0,0,0,.26-.1,1.7,1.7,0,0,0,.45-.33,2.29,2.29,0,0,0,.35-.45,2,2,0,0,0,.25-.6,1.41,1.41,0,0,0,0-.55,3,3,0,0,1-.1.59A2.39,2.39,0,0,1,303.36,48.37Z"/><path class="cls-9" d="M317.24,51.53a6.21,6.21,0,0,0,1.6,2.9,4.25,4.25,0,0,0,3,1.28,4,4,0,0,1-3.1-1.17A5.62,5.62,0,0,1,317.24,51.53Z"/><path class="cls-9" d="M316.59,54.32a6.21,6.21,0,0,0,1.6,2.9,4.25,4.25,0,0,0,3,1.28,4,4,0,0,1-3.1-1.17A5.62,5.62,0,0,1,316.59,54.32Z"/><path class="cls-9" d="M315.59,57.41a6.21,6.21,0,0,0,1.6,2.9,4.25,4.25,0,0,0,3,1.28,4,4,0,0,1-3.1-1.17A5.62,5.62,0,0,1,315.59,57.41Z"/><path class="cls-9" d="M314.95,60.2a6.21,6.21,0,0,0,1.6,2.9,4.25,4.25,0,0,0,3,1.28,4,4,0,0,1-3.1-1.17A5.62,5.62,0,0,1,314.95,60.2Z"/><path class="cls-9" d="M294.82,55.33a10.6,10.6,0,0,1,1.48,4.39,13.46,13.46,0,0,1-.45,4.63,31.73,31.73,0,0,1-1.43,4.44,26.08,26.08,0,0,1-2.14,4.14,32.13,32.13,0,0,0,2.05-4.17,31.74,31.74,0,0,0,1.38-4.44,13.33,13.33,0,0,0,.5-4.59A11.4,11.4,0,0,0,294.82,55.33Z"/><path class="cls-9" d="M317.53,40a19.35,19.35,0,0,0,1.53-1.21c.28-.26.54-.53.61-.48s-.69,1.18-.44,1.44.74-.21.94,0-.18.69,0,.88,1.08-.28,1.13-.19-1.23.91-1.13,1.13,1.22-.27,1.38,0-1.06,1.28-.94,1.44,1.78-.84,1.88-.69-1.27,1.12-1.13,1.38,1.7-.42,1.82-.19-1.27,1-1.13,1.38,1.48-.07,1.57.19-1,.74-.88.94.61,0,.86,0c.66-.11.78-.27,1-.2.35.14.12.92.25,2.32.08.9.28,1.64.23,1.65s-.18-.64-.26-.63.08.92,0,2.05c-.07,1.77-.57,2-.34,3.27.11.55.35,1.21.24,1.25s-.21-.31-.38-.31c-.39,0-.86,1.77-.71,3.57a10.47,10.47,0,0,1,.17,1.63c-.06,0-.18-.49-.31-.48s-.19,1.5-.32,2.49A8.26,8.26,0,0,1,321,67a10.44,10.44,0,0,1-.52,1.82,5,5,0,0,1,0-1,6,6,0,0,0-1.17,1.79c-.16.42-.26.86-.32.85s0-.42-.15-.57-.69,0-.95.32a1.63,1.63,0,0,0-.15,1.52c-.74-.6-1.28-1-1.38-.88s.36.77.31.79-1-1.47-1.3-1.34,0,1.34,0,1.34-1.92-2.55-2.13-2.43.55,1.26.42,1.34-1.95-2.35-2.05-2.28,1,1.9,1,1.95-1-2.1-2.64-2.47a3,3,0,0,0-1.84.27C304.31,69.71,289,78.39,289,78.37a11.59,11.59,0,0,1,1.51-1.14,52.56,52.56,0,0,1,4.5-2.81c1-.53-.66.34,7.66-4.57,1.49-.88,5.27-2.91,7.16-2.71a7,7,0,0,1,2.21.63,10.22,10.22,0,0,0,1,.4,6.39,6.39,0,0,0,3.84.37,4.56,4.56,0,0,0,1.3-.6,10.89,10.89,0,0,0,1.44-1.38c1.24-1.49,1.78-3.64,2.29-5.74,1.49-6.16,1.73-7.34,1.1-8.94A6.1,6.1,0,0,0,322,50.06a10.19,10.19,0,0,0-5.15-2.76s.74-1,1.38-2.13c.22-.38.86-1.5.69-1.63s-.75.55-.88.44.64-1.18.44-1.38-1.24.6-1.38.44.54-.83.44-.94-1.3.78-1.38.69,1.07-1,.88-1.38-.81-.06-.88-.25S316.59,40.73,317.53,40Z"/><path class="cls-9" d="M296.81,57.7c.31-.12,1,2.9,3.6,5.31,1.16,1.09,2.77,2.59,4.37,2.84.09,0,.3,0,.31.13.06.33-3,.71-6.4,1.59-.41.11-1.47.38-1.72,0a.44.44,0,0,1,0-.31s.13-1,.32-3.76c0-.39,0-.67,0-1.23C297.21,59.44,296.57,57.79,296.81,57.7Z"/><path class="cls-10" d="M289.06,36.8"/><path class="cls-9" d="M313.52,73c-.26-.4-.52-.8-.8-1.19a3.92,3.92,0,0,0-1-1c-.14-.08-.15.1-.15.21s0,.24,0,.36,0,.48.07.71c.06.47.14.95.22,1.42v0l0,0c-.52-.45-1-.89-1.59-1.31a7,7,0,0,0-1.76-1,.83.83,0,0,0-.49,0,.49.49,0,0,0-.26.38,3.19,3.19,0,0,0,0,1,12.71,12.71,0,0,0,.45,2l0,.16-.12-.11c-.46-.44-.92-.87-1.4-1.29a6.45,6.45,0,0,0-1.54-1.07c-.14-.05-.31-.08-.36,0a.79.79,0,0,0-.05.43,5.12,5.12,0,0,0,.18.92,17.45,17.45,0,0,0,.63,1.79l.08.19-.18-.11c-.49-.32-1-.63-1.5-.92a8,8,0,0,0-1.58-.73c-.26-.08-.62-.09-.58.21a2.16,2.16,0,0,0,.27.8,13.37,13.37,0,0,0,.92,1.5l.17.25-.26-.16a5.73,5.73,0,0,0-1.44-.61l-.77-.19c-.24-.06-.57-.1-.72-.13v0l.62,1.57.06.14-.13-.09c-.43-.29-.86-.57-1.31-.82a4.91,4.91,0,0,0-1.41-.59.62.62,0,0,0-.18,0s-.07,0-.05,0a.33.33,0,0,0,0,.08,2.56,2.56,0,0,0,.11.36c.09.24.2.48.31.71.22.47.45.93.69,1.38l.11.22-.16-.18a4,4,0,0,0-1.91-1.32,2.53,2.53,0,0,0-2.16.68c-.31.25-.57.54-.87.8a3.5,3.5,0,0,1-1,.6,14.93,14.93,0,0,1-2.31.53,14.93,14.93,0,0,0,2.3-.54,3.48,3.48,0,0,0,1-.61c.29-.26.56-.56.87-.81a2.57,2.57,0,0,1,2.19-.7,4.09,4.09,0,0,1,1.94,1.33l0,0c-.24-.46-.48-.92-.7-1.38-.11-.23-.22-.47-.31-.71a2.62,2.62,0,0,1-.12-.37.37.37,0,0,1,0-.11c0-.08.08-.06.11-.07a.69.69,0,0,1,.2,0,5,5,0,0,1,1.44.59c.45.25.89.53,1.32.82l-.07.06-.63-1.57v0h0c.14-.13.17-.05.25-.07l.2,0,.39.08.78.19a5.85,5.85,0,0,1,1.48.61l-.09.09a13.5,13.5,0,0,1-.94-1.51,2.25,2.25,0,0,1-.29-.86.36.36,0,0,1,.3-.39,1.13,1.13,0,0,1,.47,0,7.61,7.61,0,0,1,1.62.75c.51.29,1,.61,1.5.94l-.1.08a17.58,17.58,0,0,1-.62-1.81,5.23,5.23,0,0,1-.18-.94.88.88,0,0,1,.07-.5c.11-.19.36-.14.49-.08a6.49,6.49,0,0,1,1.57,1.1c.48.42.94.86,1.4,1.3l-.07,0a12.78,12.78,0,0,1-.44-2,3.24,3.24,0,0,1,0-1A.55.55,0,0,1,308,71a.89.89,0,0,1,.53,0,7.08,7.08,0,0,1,1.77,1.06c.55.42,1.07.86,1.59,1.32l0,0c-.08-.47-.15-.95-.21-1.42,0-.24-.05-.48-.07-.72s0-.24,0-.36a.89.89,0,0,1,0-.18c0-.08.11-.06.16,0a3.9,3.9,0,0,1,1,1.06C313,72.16,313.26,72.56,313.52,73Z"/><path class="cls-9" d="M289,44.64a4.36,4.36,0,0,1,.08.47l.06-.3a3.62,3.62,0,0,0-.05.39,3,3,0,0,0,0,.45c.14-.59.18-.72.19-.72a2.87,2.87,0,0,0-.11.88l.06.58c.11-.59.13-.71.14-.71a4.48,4.48,0,0,0-.1,1,4.74,4.74,0,0,0,.07.7s0,0,0-.09h0l.08-.81h0v1.26l0-.16a3,3,0,0,1,.1-.36,1.81,1.81,0,0,0-.1.77l.05.35,0-.17c0-.16,0-.26,0-.25s0,.37,0,.76a3.63,3.63,0,0,0,.14.85,2.08,2.08,0,0,1,.13-.42,3.72,3.72,0,0,1-.09.63,4.13,4.13,0,0,0,.29,1.35c0-.28.05-.56.06-.56s0,.4,0,.78a3.87,3.87,0,0,0,.35,1.41q0-.39,0-.77a2.22,2.22,0,0,0,.11.92,2.5,2.5,0,0,0,.82,1,3,3,0,0,0,1.24.58,2.92,2.92,0,0,0,1.16,0,34.71,34.71,0,0,1-.85,14.88,34.52,34.52,0,0,1-2.7,5.92c-.45.76-.86,1.38-1.17,1.82h0C288.65,57.77,288.89,44.64,289,44.64Zm3.88,13.28A15.66,15.66,0,0,1,291,54.64c0-.12-.23-.58-.32-.55s.23,1.89,0,2-.78-1.92-1.25-1.82c-.22,0-.41.57-.46.89,0,0,0,.12,0,.13s.19-.82.46-.89c.43-.1,1,1.88,1.25,1.82s.07-.56,0-1a4.4,4.4,0,0,1-.08-1c.07,0,.27.44.32.55A12.56,12.56,0,0,0,292.87,57.92Zm.45-.6a54.09,54.09,0,0,1-1,6.22c-.3,1.59-.47,2.44-.8,3.59-.19.67-.37,1.2-.37,1.2a34.74,34.74,0,0,0,1.34-4.69,33.08,33.08,0,0,0,.83-7S293.37,56.77,293.32,57.32Z"/><path class="cls-9" d="M321.64,23.81"/><path class="cls-9" d="M288.94,77.12h0c-.1-.44-.22-1.06-.36-1.82,0,0-.53-2.84-.84-5.92a109.38,109.38,0,0,1-.27-14.88.31.31,0,0,0,.36,0,1.16,1.16,0,0,0,.39-.58,4,4,0,0,0,.26-1,7,7,0,0,0,0-.92q0,.39,0,.77a11.44,11.44,0,0,0,.11-1.41c0-.38,0-.77,0-.78s0,.28,0,.56a12.61,12.61,0,0,0,.09-1.35q0-.62,0-.63s0,.14,0,.42c0-.2,0-.49,0-.85s0-.76,0-.76,0,.09,0,.25v.17l0-.35a5.63,5.63,0,0,0,0-.77c0,.1,0,.22,0,.36v.16c0-1,0-1.26,0-1.26s0,.81,0,.81h0v.13s0-.37,0-.75c0-.59,0-1,0-1s0,.13,0,.71l0-.58c0-.5,0-.88,0-.88s0,.13.06.72c0-.1,0-.26,0-.45s0-.39,0-.39l0,.3s0-.47,0-.47S289,57.77,288.94,77.12Zm-.64-22.36a3.41,3.41,0,0,1,.1-.55s0,.37,0,1a6.17,6.17,0,0,0,0,1c.07.06.26-1.92.39-1.82a5,5,0,0,1,.14.89.82.82,0,0,0,0-.13,2.65,2.65,0,0,0-.14-.89c-.15-.1-.33,1.9-.39,1.82s.06-1.91,0-2a2.75,2.75,0,0,0-.1.55c-.24,1.87-.59,3.28-.59,3.28A25.88,25.88,0,0,0,288.3,54.76Z"/><circle class="cls-9" cx="301.46" cy="47.04" r="2.32"/><circle class="cls-11" cx="301.46" cy="47.04" r="2.32"/><line class="cls-9" x1="288.99" y1="70.17" x2="288.99" y2="44.72"/><path class="cls-12" d="M289,70.17l-.09-12.73,0-6.36c0-2.12,0-4.24.11-6.36h0c.07,2.12.07,4.24.11,6.36l0,6.36L289,70.17Z"/><circle class="cls-12" cx="300.53" cy="46.17" r="1.08"/></g><path class="cls-13" d="M166.29,81.69a7.3,7.3,0,0,0-3-3.09,9.2,9.2,0,0,0-4.45-1,9.87,9.87,0,0,0-4.93,1.22,8.62,8.62,0,0,0-3.39,3.47,10.69,10.69,0,0,0-1.22,5.2,10.81,10.81,0,0,0,1.22,5.22,8.59,8.59,0,0,0,3.39,3.49,9.87,9.87,0,0,0,4.93,1.22,8.4,8.4,0,0,0,8.9-7.6H157.27V86.18h15.36v3.51a13.34,13.34,0,0,1-2.31,5.87,13.64,13.64,0,0,1-4.85,4.27,13.87,13.87,0,0,1-6.64,1.6,14.61,14.61,0,0,1-7.18-1.79,13.49,13.49,0,0,1-5.15-5,14.59,14.59,0,0,1,0-14.42,13.45,13.45,0,0,1,5.17-5,15.45,15.45,0,0,1,15.08.35,12.28,12.28,0,0,1,5,6.09Z"/><path class="cls-13" d="M191.6,101.19l-6.42-10.95h-3.49v10.95h-4.57V73.81h9.63a12.17,12.17,0,0,1,5.44,1.1,7.75,7.75,0,0,1,3.33,3,7.93,7.93,0,0,1,1.1,4.14,7.81,7.81,0,0,1-6.46,7.84l6.9,11.34Zm-9.91-14.53h5.05a5.36,5.36,0,0,0,3.87-1.26,4.49,4.49,0,0,0,1.3-3.39,4.34,4.34,0,0,0-1.28-3.33,5.52,5.52,0,0,0-3.89-1.2h-5.05Z"/><path class="cls-13" d="M208,99.67a13.4,13.4,0,0,1-5.17-5,14.62,14.62,0,0,1,0-14.44,13.45,13.45,0,0,1,5.17-5,15.28,15.28,0,0,1,14.36,0,13.32,13.32,0,0,1,5.15,5,14.76,14.76,0,0,1,0,14.44,13.26,13.26,0,0,1-5.15,5,15.27,15.27,0,0,1-14.36,0Zm12.09-3.35a8.67,8.67,0,0,0,3.39-3.54,11.22,11.22,0,0,0,1.22-5.34,11.11,11.11,0,0,0-1.22-5.32,8.57,8.57,0,0,0-3.39-3.51,10.58,10.58,0,0,0-9.87,0,8.57,8.57,0,0,0-3.39,3.51,11.1,11.1,0,0,0-1.22,5.32,11.21,11.21,0,0,0,1.22,5.34,8.66,8.66,0,0,0,3.39,3.54,10.43,10.43,0,0,0,9.87,0Z"/><path class="cls-13" d="M238.45,73.81V91.26a6.16,6.16,0,0,0,1.66,4.69,7.66,7.66,0,0,0,9.31,0,6.16,6.16,0,0,0,1.66-4.69V73.81h4.57V91.18a10.33,10.33,0,0,1-1.48,5.67,9.16,9.16,0,0,1-4,3.47,13,13,0,0,1-5.49,1.14,12.86,12.86,0,0,1-5.48-1.14,8.93,8.93,0,0,1-3.91-3.47,10.54,10.54,0,0,1-1.44-5.67V73.81Z"/><path class="cls-13" d="M280.08,85.91a7.46,7.46,0,0,1-3.21,3,12.09,12.09,0,0,1-5.66,1.16h-5.05v11.11h-4.57V73.81h9.63a12.35,12.35,0,0,1,5.44,1.08A7.63,7.63,0,0,1,280,77.83a7.93,7.93,0,0,1,1.1,4.14A8.15,8.15,0,0,1,280.08,85.91Zm-5-.65A4.21,4.21,0,0,0,276.39,82q0-4.49-5.17-4.49h-5.05v8.94h5.05A5.64,5.64,0,0,0,275.11,85.26Z"/><g id="KSenos"><path class="cls-13" d="M45.62,61.27v-5.4a.5.5,0,0,1,.49-.5l28.66-.05a5.32,5.32,0,0,0,5.42-5V50a4.57,4.57,0,0,0-4.63-4.59L55.7,45.25A12,12,0,0,1,43.61,34l0-.65h0A11.61,11.61,0,0,1,55.45,22H84a.5.5,0,0,1,.49.5v5.7a.5.5,0,0,1-.49.5H55.72a5,5,0,0,0-5.14,4.91h0a5,5,0,0,0,5.1,4.93L76,38.81A11,11,0,0,1,87,49.51v1A11.51,11.51,0,0,1,75.25,61.77H46.12A.5.5,0,0,1,45.62,61.27Z"/><rect class="cls-13" y="22.04" width="7.35" height="39.74" rx="0.39" ry="0.39"/><path class="cls-13" d="M38.28,61.77H30a.49.49,0,0,1-.34-.14l-9.92-9.81L9.63,42.22a.5.5,0,0,1,0-.72l9.89-9.74,10.26-9.6a.49.49,0,0,1,.33-.13h8.17a.5.5,0,0,1,.34.86L19.41,41.51a.5.5,0,0,0,0,.72L38.62,60.91A.5.5,0,0,1,38.28,61.77Z"/><path class="cls-14" d="M269.83,62.42A11.56,11.56,0,0,0,281.51,51V50a11,11,0,0,0-11-10.87l-20.14-.24a5.07,5.07,0,0,1-5.06-5h0a5,5,0,0,1,5.1-5h28.08a.5.5,0,0,0,.49-.51V22.55a.5.5,0,0,0-.49-.51H250.16a11.65,11.65,0,0,0-11.78,11.52h0l0,.66a12,12,0,0,0,12,11.41l19.74.16a4.59,4.59,0,0,1,4.6,4.67v.26a5.34,5.34,0,0,1-5.38,5.13l-28.46.05a.5.5,0,0,0-.49.51V61.9a.5.5,0,0,0,.49.51Z"/><path class="cls-14" d="M212,27.69a14.79,14.79,0,0,0-15,14.54,15,15,0,0,0,30,0A14.79,14.79,0,0,0,212,27.69Zm20.86,14.54c0,11.15-9.34,20.19-20.86,20.19s-20.86-9-20.86-20.19S200.52,22,212,22,232.91,31.07,232.91,42.22Z"/><path class="cls-13" d="M151.23,61.92V32a.48.48,0,0,1,.85-.33l25.16,30.53a.47.47,0,0,0,.37.17h6.06a.49.49,0,0,0,.48-.5V22.54a.49.49,0,0,0-.48-.5H178.3a.49.49,0,0,0-.48.5V52.39a.48.48,0,0,1-.85.33l-25.16-30.5a.47.47,0,0,0-.37-.17h-6.06a.49.49,0,0,0-.48.5V61.92a.49.49,0,0,0,.48.5h5.35A.49.49,0,0,0,151.23,61.92Z"/><polygon class="cls-13" points="137.31 62.47 121.05 60.98 94.25 62.47 94.25 55.01 121.05 53.52 137.31 55.01 137.31 62.47"/><polygon class="cls-13" points="137.38 46.76 121.13 43.05 94.33 46.76 94.33 39.12 121.13 35.41 137.38 39.12 137.38 46.76"/><polygon class="cls-13" points="137.31 29.8 121.05 23.52 94.25 29.8 94.25 22.22 121.05 15.94 137.31 22.22 137.31 29.8"/></g></g></g></svg>